<svg class="animated" id="freepik_stories-mobile" xmlns="http://www.w3.org/2000/svg" xmlns:xlink="http://www.w3.org/1999/xlink" viewBox="0 0 500 500" version="1.1" xmlns:svgjs="http://svgjs.com/svgjs"><style>svg#freepik_stories-mobile:not(.animated) .animable {opacity: 0;}svg#freepik_stories-mobile.animated #freepik--background-complete--inject-2 {animation: 1s 1 forwards cubic-bezier(.36,-0.01,.5,1.38) zoomIn;animation-delay: 0s;}svg#freepik_stories-mobile.animated #freepik--Shadow--inject-2 {animation: 1s 1 forwards cubic-bezier(.36,-0.01,.5,1.38) zoomOut;animation-delay: 0s;}svg#freepik_stories-mobile.animated #freepik--Character--inject-2 {animation: 1s 1 forwards cubic-bezier(.36,-0.01,.5,1.38) zoomOut;animation-delay: 0s;}svg#freepik_stories-mobile.animated #freepik--bubble-speech--inject-2 {animation: 1s 1 forwards cubic-bezier(.36,-0.01,.5,1.38) slideDown;animation-delay: 0s;}            @keyframes zoomIn {                0% {                    opacity: 0;                    transform: scale(0.5);                }                100% {                    opacity: 1;                    transform: scale(1);                }            }                    @keyframes zoomOut {                0% {                    opacity: 0;                    transform: scale(1.5);                }                100% {                    opacity: 1;                    transform: scale(1);                }            }                    @keyframes slideDown {                0% {                    opacity: 0;                    transform: translateY(-30px);                }                100% {                    opacity: 1;                    transform: translateY(0);                }            }        </style><g id="freepik--background-complete--inject-2" class="animable" style="transform-origin: 250px 226.88px;"><rect y="382.4" width="500" height="0.25" style="fill: rgb(230, 230, 230); transform-origin: 250px 382.525px;" id="elvmvligliks" class="animable"></rect><rect x="413.5" y="396.43" width="10.61" height="0.25" style="fill: rgb(230, 230, 230); transform-origin: 418.805px 396.555px;" id="el2nr8gvtw1gf" class="animable"></rect><rect x="363.01" y="396.55" width="43.15" height="0.25" style="fill: rgb(230, 230, 230); transform-origin: 384.585px 396.675px;" id="el7caa2grx9w5" class="animable"></rect><rect x="236.85" y="394.17" width="72.82" height="0.25" style="fill: rgb(230, 230, 230); transform-origin: 273.26px 394.295px;" id="elh35z2vqwke" class="animable"></rect><rect x="171.85" y="398.51" width="23.11" height="0.25" style="fill: rgb(230, 230, 230); transform-origin: 183.405px 398.635px;" id="elotcd0umr3gd" class="animable"></rect><rect x="86.13" y="394.29" width="31.82" height="0.25" style="fill: rgb(230, 230, 230); transform-origin: 102.04px 394.415px;" id="eltb8qhxjr3i" class="animable"></rect><rect x="123.5" y="394.29" width="29.74" height="0.25" style="fill: rgb(230, 230, 230); transform-origin: 138.37px 394.415px;" id="el5x2iwph804v" class="animable"></rect><rect x="65.29" y="389.92" width="30.37" height="0.25" style="fill: rgb(230, 230, 230); transform-origin: 80.475px 390.045px;" id="elpig6l2tc2g" class="animable"></rect><path d="M237,337.8H43.91a5.71,5.71,0,0,1-5.7-5.71V60.66A5.71,5.71,0,0,1,43.91,55H237a5.71,5.71,0,0,1,5.71,5.71V332.09A5.71,5.71,0,0,1,237,337.8ZM43.91,55.2a5.46,5.46,0,0,0-5.45,5.46V332.09a5.46,5.46,0,0,0,5.45,5.46H237a5.47,5.47,0,0,0,5.46-5.46V60.66A5.47,5.47,0,0,0,237,55.2Z" style="fill: rgb(230, 230, 230); transform-origin: 140.46px 196.4px;" id="el6gvkqpb0ap3" class="animable"></path><path d="M453.31,337.8H260.21a5.72,5.72,0,0,1-5.71-5.71V60.66A5.72,5.72,0,0,1,260.21,55h193.1A5.71,5.71,0,0,1,459,60.66V332.09A5.71,5.71,0,0,1,453.31,337.8ZM260.21,55.2a5.47,5.47,0,0,0-5.46,5.46V332.09a5.47,5.47,0,0,0,5.46,5.46h193.1a5.47,5.47,0,0,0,5.46-5.46V60.66a5.47,5.47,0,0,0-5.46-5.46Z" style="fill: rgb(230, 230, 230); transform-origin: 356.75px 196.4px;" id="eluli0y3ldf7d" class="animable"></path><rect x="54.09" y="76.47" width="155.75" height="135.53" style="fill: rgb(230, 230, 230); transform-origin: 131.965px 144.235px;" id="elt40x685t5a" class="animable"></rect><rect x="57.07" y="76.47" width="159.15" height="135.53" style="fill: rgb(240, 240, 240); transform-origin: 136.645px 144.235px;" id="el6gra9ws3dgp" class="animable"></rect><rect x="54.09" y="212" width="155.75" height="5.44" style="fill: rgb(230, 230, 230); transform-origin: 131.965px 214.72px;" id="elnbf3uxghs3" class="animable"></rect><rect x="67.69" y="212" width="159.15" height="5.44" style="fill: rgb(240, 240, 240); transform-origin: 147.265px 214.72px;" id="eli90m6s3pzmc" class="animable"></rect><g id="elfrialwmldu"><rect x="77.8" y="73.58" width="117.69" height="141.3" style="fill: rgb(250, 250, 250); transform-origin: 136.645px 144.23px; transform: rotate(90deg);" class="animable"></rect></g><polygon points="88.88 203.08 116.14 85.39 153.55 85.39 126.29 203.08 88.88 203.08" style="fill: rgb(255, 255, 255); transform-origin: 121.215px 144.235px;" id="eli2vv3t32kqm" class="animable"></polygon><path d="M71.14,183.41a.64.64,0,0,1-.64-.64V91.19a.64.64,0,0,1,1.28,0v91.58A.64.64,0,0,1,71.14,183.41Z" style="fill: rgb(230, 230, 230); transform-origin: 71.14px 136.98px;" id="el5bnmikte0rd" class="animable"></path><polygon points="133.96 203.08 161.22 85.39 174.16 85.39 146.9 203.08 133.96 203.08" style="fill: rgb(255, 255, 255); transform-origin: 154.06px 144.235px;" id="el71ra8rha7qp" class="animable"></polygon><g id="elqmyfgtaf37"><rect x="147.88" y="143.67" width="117.69" height="1.13" style="fill: rgb(230, 230, 230); transform-origin: 206.725px 144.235px; transform: rotate(90deg);" class="animable"></rect></g><polygon points="218.33 86.36 62.58 86.36 61.76 83.65 217.51 83.65 218.33 86.36" style="fill: rgb(224, 224, 224); transform-origin: 140.045px 85.005px;" id="elr4iiv081rzs" class="animable"></polygon><polygon points="218.33 90.83 62.58 90.83 61.76 88.12 217.51 88.12 218.33 90.83" style="fill: rgb(224, 224, 224); transform-origin: 140.045px 89.475px;" id="el55s288mgco5" class="animable"></polygon><polygon points="218.33 95.3 62.58 95.3 61.76 92.59 217.51 92.59 218.33 95.3" style="fill: rgb(224, 224, 224); transform-origin: 140.045px 93.945px;" id="elv3zn5zdxvrc" class="animable"></polygon><polygon points="218.33 99.77 62.58 99.77 61.76 97.06 217.51 97.06 218.33 99.77" style="fill: rgb(224, 224, 224); transform-origin: 140.045px 98.415px;" id="elqc1f884d3cf" class="animable"></polygon><polygon points="218.33 104.24 62.58 104.24 61.76 101.53 217.51 101.53 218.33 104.24" style="fill: rgb(224, 224, 224); transform-origin: 140.045px 102.885px;" id="eltvz9q9zx9ho" class="animable"></polygon><polygon points="218.33 108.71 62.58 108.71 61.76 106 217.51 106 218.33 108.71" style="fill: rgb(224, 224, 224); transform-origin: 140.045px 107.355px;" id="elpnf1yfrwgng" class="animable"></polygon><rect x="337.7" y="85.29" width="65.49" height="116.75" style="fill: rgb(230, 230, 230); transform-origin: 370.445px 143.665px;" id="eljt38xhpj4z" class="animable"></rect><path d="M374.59,91.46a5,5,0,1,1,5.05-5A5.05,5.05,0,0,1,374.59,91.46Zm0-9.1a4,4,0,1,0,4.05,4A4,4,0,0,0,374.59,82.36Z" style="fill: rgb(224, 224, 224); transform-origin: 374.64px 86.4601px;" id="elilxv7xv7nng" class="animable"></path><rect x="342.63" y="85.29" width="67.64" height="116.75" style="fill: rgb(240, 240, 240); transform-origin: 376.45px 143.665px;" id="elgpe7rvxa3ya" class="animable"></rect><g id="elnkfh8ntzbej"><rect x="323.74" y="115.51" width="105.42" height="56.31" style="fill: rgb(250, 250, 250); transform-origin: 376.45px 143.665px; transform: rotate(90deg);" class="animable"></rect></g><g id="elloxzl4lzsfo"><rect x="351.55" y="143.32" width="105.42" height="0.7" style="fill: rgb(224, 224, 224); transform-origin: 404.26px 143.67px; transform: rotate(90deg);" class="animable"></rect></g><path d="M354.76,243.56s.7,11.77,27.45,11.77,27.44-11.77,27.44-11.77Z" style="fill: rgb(230, 230, 230); transform-origin: 382.205px 249.445px;" id="el3w0qav0m52b" class="animable"></path><rect x="273.34" y="264.57" width="27.32" height="112.52" style="fill: rgb(230, 230, 230); transform-origin: 287px 320.83px;" id="elazncoygqoyj" class="animable"></rect><rect x="278.59" y="377.09" width="142.74" height="5.31" style="fill: rgb(230, 230, 230); transform-origin: 349.96px 379.745px;" id="elap9d5yr2ucq" class="animable"></rect><g id="elsjvdtr8c7"><rect x="300.66" y="264.57" width="125.91" height="112.52" style="fill: rgb(245, 245, 245); transform-origin: 363.615px 320.83px; transform: rotate(180deg);" class="animable"></rect></g><g id="elxd2tbzrl8yi"><rect x="311.4" y="307.09" width="104.43" height="27.48" style="fill: rgb(230, 230, 230); transform-origin: 363.615px 320.83px; transform: rotate(180deg);" class="animable"></rect></g><g id="elvas01cn8g5h"><rect x="311.4" y="339.58" width="104.43" height="27.48" style="fill: rgb(230, 230, 230); transform-origin: 363.615px 353.32px; transform: rotate(180deg);" class="animable"></rect></g><path d="M379.23,310.1H348a1.88,1.88,0,0,1-1.88-1.88h0a1.89,1.89,0,0,1,1.88-1.89h31.23a1.89,1.89,0,0,1,1.88,1.89h0A1.88,1.88,0,0,1,379.23,310.1Z" style="fill: rgb(245, 245, 245); transform-origin: 363.615px 308.215px;" id="el3lbu2raaqky" class="animable"></path><g id="eljztv93eh83t"><rect x="311.4" y="274.6" width="104.43" height="27.48" style="fill: rgb(230, 230, 230); transform-origin: 363.615px 288.34px; transform: rotate(180deg);" class="animable"></rect></g><path d="M379.23,277.61H348a1.89,1.89,0,0,1-1.88-1.89h0a1.88,1.88,0,0,1,1.88-1.88h31.23a1.88,1.88,0,0,1,1.88,1.88h0A1.89,1.89,0,0,1,379.23,277.61Z" style="fill: rgb(245, 245, 245); transform-origin: 363.615px 275.725px;" id="elgzn11dfrxuc" class="animable"></path><path d="M379.23,342.6H348a1.89,1.89,0,0,1-1.88-1.89h0a1.88,1.88,0,0,1,1.88-1.88h31.23a1.88,1.88,0,0,1,1.88,1.88h0A1.89,1.89,0,0,1,379.23,342.6Z" style="fill: rgb(245, 245, 245); transform-origin: 363.615px 340.715px;" id="elu8ju6xh116" class="animable"></path><rect x="300.66" y="255.33" width="129.55" height="9.24" style="fill: rgb(235, 235, 235); transform-origin: 365.435px 259.95px;" id="elh13mjyqbmlw" class="animable"></rect><g id="elijy1e2hrgs"><rect x="269.52" y="255.33" width="31.14" height="9.24" style="fill: rgb(224, 224, 224); transform-origin: 285.09px 259.95px; transform: rotate(180deg);" class="animable"></rect></g><g id="elr9haaxl22q"><rect x="283.85" y="222.8" width="27.15" height="32.54" style="fill: rgb(230, 230, 230); transform-origin: 297.425px 239.07px; transform: rotate(180deg);" class="animable"></rect></g><rect x="311.01" y="222.8" width="48.18" height="32.54" style="fill: rgb(250, 250, 250); transform-origin: 335.1px 239.07px;" id="elzlknv1jrryb" class="animable"></rect><path d="M346.21,240c0,2.33-5,4.21-11.11,4.21S324,242.3,324,240s5-4.21,11.12-4.21S346.21,237.65,346.21,240Z" style="fill: rgb(255, 255, 255); transform-origin: 335.105px 240px;" id="elnk30sfne3so" class="animable"></path><g id="elw037zinenh"><rect x="283.85" y="226.96" width="75.61" height="2.23" style="fill: rgb(224, 224, 224); opacity: 0.7; mix-blend-mode: multiply; transform-origin: 321.655px 228.075px; transform: rotate(180deg);" class="animable"></rect></g><g id="elf7hzxe700me"><rect x="282.36" y="221.44" width="28.65" height="6.46" style="fill: rgb(230, 230, 230); transform-origin: 296.685px 224.67px; transform: rotate(180deg);" class="animable"></rect></g><rect x="311.01" y="221.44" width="49.67" height="6.46" style="fill: rgb(250, 250, 250); transform-origin: 335.845px 224.67px;" id="elcnlxjlgju0f" class="animable"></rect><polygon points="173.84 239.06 70.34 239.06 76.8 382.4 180.3 382.4 173.84 239.06" style="fill: rgb(230, 230, 230); transform-origin: 125.32px 310.73px;" id="elrqhd3j7tef" class="animable"></polygon><polygon points="175.34 239.06 71.84 239.06 78.3 382.4 181.8 382.4 175.34 239.06" style="fill: rgb(250, 250, 250); transform-origin: 126.82px 310.73px;" id="elzz6sw3vk6k8" class="animable"></polygon><g id="el04lprv33gx8g"><rect x="94.67" y="349.86" width="27.15" height="32.54" style="fill: rgb(224, 224, 224); transform-origin: 108.245px 366.13px; transform: rotate(180deg);" class="animable"></rect></g><rect x="121.82" y="349.86" width="129.97" height="32.54" style="fill: rgb(240, 240, 240); transform-origin: 186.805px 366.13px;" id="elsbrxvm4a1da" class="animable"></rect><g id="el8lobgalvx6"><rect x="94.67" y="354.03" width="157.41" height="2.23" style="fill: rgb(224, 224, 224); opacity: 0.7; mix-blend-mode: multiply; transform-origin: 173.375px 355.145px; transform: rotate(180deg);" class="animable"></rect></g><g id="el610osotwt6l"><rect x="93.17" y="348.51" width="28.65" height="6.46" style="fill: rgb(224, 224, 224); transform-origin: 107.495px 351.74px; transform: rotate(180deg);" class="animable"></rect></g><rect x="121.82" y="348.51" width="131.47" height="6.46" style="fill: rgb(240, 240, 240); transform-origin: 187.555px 351.74px;" id="elylspslfeng" class="animable"></rect><g id="el6mtfitksbn6"><rect x="117.16" y="289.72" width="35.33" height="58.79" style="fill: rgb(230, 230, 230); transform-origin: 134.825px 319.115px; transform: rotate(180deg);" class="animable"></rect></g><rect x="152.49" y="289.72" width="88.28" height="58.79" style="fill: rgb(235, 235, 235); transform-origin: 196.63px 319.115px;" id="elbi2om88a2xb" class="animable"></rect><g id="elgynz169st6o"><rect x="117.16" y="295.14" width="123.98" height="2.9" style="fill: rgb(224, 224, 224); opacity: 0.7; mix-blend-mode: multiply; transform-origin: 179.15px 296.59px; transform: rotate(180deg);" class="animable"></rect></g><g id="elb3m1elcw7xv"><rect x="115.21" y="283" width="37.28" height="13.36" style="fill: rgb(230, 230, 230); transform-origin: 133.85px 289.68px; transform: rotate(180deg);" class="animable"></rect></g><rect x="152.49" y="283" width="90.23" height="13.36" style="fill: rgb(235, 235, 235); transform-origin: 197.605px 289.68px;" id="elbesijp8ubvl" class="animable"></rect><circle cx="77.81" cy="357.43" r="24.97" style="fill: rgb(240, 240, 240); transform-origin: 77.81px 357.43px;" id="elroghx7m6koi" class="animable"></circle><g id="el2uvsoshb8np"><path d="M65.58,342.54c1.48-1.54,2.08-3.38,1.32-4.1s-2.57-.07-4.05,1.47-2.08,3.38-1.33,4.11S64.09,344.09,65.58,342.54Z" style="fill: rgb(224, 224, 224); opacity: 0.7; mix-blend-mode: multiply; transform-origin: 64.2132px 341.232px;" class="animable"></path></g><g id="elsxjzhrp9js"><path d="M76,337.86c2.1-.4,3.65-1.56,3.45-2.59s-2.06-1.54-4.17-1.13-3.64,1.56-3.45,2.59S73.85,338.27,76,337.86Z" style="fill: rgb(224, 224, 224); opacity: 0.7; mix-blend-mode: multiply; transform-origin: 75.6407px 336px;" class="animable"></path></g><g id="eljb05rqwal9n"><path d="M73.82,346.58c2-.71,3.31-2.29,2.87-3.53s-2.43-1.67-4.45-1-3.3,2.29-2.87,3.53S71.8,347.29,73.82,346.58Z" style="fill: rgb(224, 224, 224); opacity: 0.7; mix-blend-mode: multiply; transform-origin: 73.031px 344.324px;" class="animable"></path></g></g><g id="freepik--Shadow--inject-2" class="animable" style="transform-origin: 250px 416.24px;"><ellipse cx="250" cy="416.24" rx="193.89" ry="11.32" style="fill: rgb(245, 245, 245); transform-origin: 250px 416.24px;" id="el6rzyr20g1zw" class="animable"></ellipse></g><g id="freepik--Character--inject-2" class="animable" style="transform-origin: 229.262px 263.575px;"><rect x="177.54" y="111.44" width="144.32" height="304.79" rx="14.62" style="fill: rgb(142, 81, 255); transform-origin: 249.7px 263.835px;" id="el1ispu8asaeb" class="animable"></rect><g id="el3y0lf4blh2r"><rect x="177.54" y="111.44" width="144.32" height="304.79" rx="14.62" style="fill: rgb(255, 255, 255); opacity: 0.7; transform-origin: 249.7px 263.835px;" class="animable"></rect></g><rect x="181.4" y="110.92" width="144.32" height="304.79" rx="14.62" style="fill: rgb(142, 81, 255); transform-origin: 253.56px 263.315px;" id="elbmv4x4iv7sv" class="animable"></rect><g id="elfd49xr0dt8u"><rect x="181.4" y="110.92" width="144.32" height="304.79" rx="14.62" style="opacity: 0.2; transform-origin: 253.56px 263.315px;" class="animable"></rect></g><path d="M259.19,402.28a6.51,6.51,0,1,1-6.5-6.5A6.5,6.5,0,0,1,259.19,402.28Z" style="fill: rgb(142, 81, 255); transform-origin: 252.68px 402.29px;" id="elp58v4u8kab" class="animable"></path><g id="el1r9y9b1yr7c"><path d="M259.19,402.28a6.51,6.51,0,1,1-6.5-6.5A6.5,6.5,0,0,1,259.19,402.28Z" style="opacity: 0.4; transform-origin: 252.68px 402.29px;" class="animable"></path></g><polygon points="324.56 392.75 180.96 392.75 180.96 130.83 325.56 130.83 324.56 392.75" style="fill: rgb(142, 81, 255); transform-origin: 253.26px 261.79px;" id="elx4miym3ph0l" class="animable"></polygon><g id="elq17p0xpu8fd"><polygon points="325.83 392.61 180.88 392.78 180.88 130.85 325.7 130.7 325.83 392.61" style="fill: rgb(255, 255, 255); opacity: 0.8; transform-origin: 253.355px 261.74px;" class="animable"></polygon></g><g id="elwfg618eugzj"><rect x="169.03" y="135.22" width="1" height="13.22" style="fill: rgb(142, 81, 255); opacity: 0.33; transform-origin: 169.53px 141.83px;" class="animable"></rect></g><g id="elhn09199wnuc"><rect x="169.03" y="152.11" width="1" height="4.14" style="fill: rgb(142, 81, 255); opacity: 0.33; transform-origin: 169.53px 154.18px;" class="animable"></rect></g><rect x="184.95" y="141.67" width="119.49" height="79.34" rx="9.94" style="fill: rgb(255, 255, 255); transform-origin: 244.695px 181.34px;" id="elayfhim4ihqd" class="animable"></rect><g id="elc29y9u9ukso"><circle cx="203.26" cy="159.99" r="13.23" style="fill: rgb(142, 81, 255); opacity: 0.27; transform-origin: 203.26px 159.99px; transform: rotate(-22.69deg);" class="animable"></circle></g><path d="M214.18,160a10.71,10.71,0,0,1-1.32,5.2,10.92,10.92,0,1,1,1.32-5.2Z" style="fill: rgb(255, 255, 255); transform-origin: 203.26px 159.996px;" id="elx4xoc5via1" class="animable"></path><g id="elnb5ku6ebzlf"><path d="M212.86,165.19a10.92,10.92,0,0,1-19.2,0,17.29,17.29,0,0,1,19.2,0Z" style="fill: rgb(142, 81, 255); opacity: 0.27; transform-origin: 203.26px 166.593px;" class="animable"></path></g><g id="elr3c9ztvapka"><circle cx="203.26" cy="156.25" r="4.86" style="fill: rgb(142, 81, 255); opacity: 0.27; transform-origin: 203.26px 156.25px;" class="animable"></circle></g><rect x="184.95" y="228.34" width="119.49" height="27.77" rx="7.33" style="fill: rgb(255, 255, 255); transform-origin: 244.695px 242.225px;" id="ell4isv7r2hor" class="animable"></rect><g id="ellc484och18l"><path d="M324.75,258.8l14.13,38.94a4.1,4.1,0,0,1-2.45,5.23L262.3,329.86a4.1,4.1,0,0,1-5.23-2.44l-14.13-38.95a4.08,4.08,0,0,1,2.45-5.22l74.13-26.9a4.1,4.1,0,0,1,5.23,2.45Z" style="fill: rgb(142, 81, 255); opacity: 0.6; transform-origin: 290.909px 293.106px;" class="animable"></path></g><path d="M322.51,256.44l-21.19,34.87a16.59,16.59,0,0,1-19.55,7.09l-38.62-13.18a4.08,4.08,0,0,1,2.24-2l74.13-26.9A4.1,4.1,0,0,1,322.51,256.44Z" style="fill: rgb(142, 81, 255); transform-origin: 282.83px 277.693px;" id="el328jcozsqp8" class="animable"></path><g id="elr7x88fqqinr"><path d="M322.51,256.44l-21.19,34.87a16.59,16.59,0,0,1-19.55,7.09l-38.62-13.18a4.08,4.08,0,0,1,2.24-2l74.13-26.9A4.1,4.1,0,0,1,322.51,256.44Z" style="fill: rgb(255, 255, 255); opacity: 0.5; transform-origin: 282.83px 277.693px;" class="animable"></path></g><g id="el7dk1qwbzwmt"><path d="M301.5,325.73l-.68,35.08a3.47,3.47,0,0,1-3.52,3.39l-66.79-1.3a3.45,3.45,0,0,1-3.38-3.52l.67-35.08a3.51,3.51,0,0,1,1.15-2.51,3.46,3.46,0,0,1,2.37-.88l66.79,1.29a3.47,3.47,0,0,1,3.39,3.53Z" style="fill: rgb(142, 81, 255); opacity: 0.6; transform-origin: 264.315px 342.555px;" class="animable"></path></g><path d="M300.45,323.18,273.09,344.3a14.08,14.08,0,0,1-17.62-.34L229,321.79a3.46,3.46,0,0,1,2.37-.88l66.79,1.29A3.46,3.46,0,0,1,300.45,323.18Z" style="fill: rgb(142, 81, 255); transform-origin: 264.725px 334.07px;" id="ely6tlj6rrywq" class="animable"></path><g id="elem4mkz17tx7"><path d="M300.45,323.18,273.09,344.3a14.08,14.08,0,0,1-17.62-.34L229,321.79a3.46,3.46,0,0,1,2.37-.88l66.79,1.29A3.46,3.46,0,0,1,300.45,323.18Z" style="fill: rgb(255, 255, 255); opacity: 0.5; transform-origin: 264.725px 334.07px;" class="animable"></path></g><path d="M234.13,119.17a2.3,2.3,0,1,1,2.3,2.31A2.3,2.3,0,0,1,234.13,119.17Z" style="fill: rgb(142, 81, 255); transform-origin: 236.43px 119.18px;" id="elchkbi0lwmlg" class="animable"></path><path d="M244.38,116.87h19.11a2.31,2.31,0,0,1,2.3,2.3h0a2.31,2.31,0,0,1-2.3,2.31H244.38a2.31,2.31,0,0,1-2.3-2.31h0A2.31,2.31,0,0,1,244.38,116.87Z" style="fill: rgb(142, 81, 255); transform-origin: 253.935px 119.175px;" id="eltox9v0bkka" class="animable"></path><g id="elb9xnqkyk6a8"><path d="M234.13,119.17a2.3,2.3,0,1,1,2.3,2.31A2.3,2.3,0,0,1,234.13,119.17Z" style="opacity: 0.4; transform-origin: 236.43px 119.18px;" class="animable"></path></g><g id="eljhv8jpkenj"><path d="M244.38,116.87h19.11a2.31,2.31,0,0,1,2.3,2.3h0a2.31,2.31,0,0,1-2.3,2.31H244.38a2.31,2.31,0,0,1-2.3-2.31h0A2.31,2.31,0,0,1,244.38,116.87Z" style="opacity: 0.4; transform-origin: 253.935px 119.175px;" class="animable"></path></g><rect x="312.38" y="163.21" width="17.55" height="37.05" rx="4.01" style="fill: rgb(142, 81, 255); transform-origin: 321.155px 181.735px;" id="elyhn8dvrztyl" class="animable"></rect><g id="elcpiy0avqxas"><rect x="312.38" y="163.21" width="17.55" height="37.05" rx="4.01" style="fill: rgb(255, 255, 255); opacity: 0.8; transform-origin: 321.155px 181.735px;" class="animable"></rect></g><rect x="312.38" y="210.95" width="17.55" height="20.9" rx="3.01" style="fill: rgb(142, 81, 255); transform-origin: 321.155px 221.4px;" id="elz2l8fic94mp" class="animable"></rect><g id="elf27cpmcmbta"><rect x="312.38" y="210.95" width="17.55" height="20.9" rx="3.01" style="fill: rgb(255, 255, 255); opacity: 0.8; transform-origin: 321.155px 221.4px;" class="animable"></rect></g><g style="clip-path: url(&quot;#freepik--clip-path--inject-2&quot;); transform-origin: 220.478px 261.41px;" id="elhpn38udtf" class="animable"><rect x="177.23" y="129.81" width="144.32" height="261.93" style="fill: none; transform-origin: 249.39px 260.775px;" id="el2vuot0l1zuc" class="animable"></rect><polygon points="198.98 385.43 206.33 386.14 213.98 368.65 206.63 367.93 198.98 385.43" style="fill: rgb(228, 137, 123); transform-origin: 206.48px 377.035px;" id="eloahvtxddryg" class="animable"></polygon><polygon points="124.37 331.86 128.56 338.21 144.62 330.54 140.42 324.18 124.37 331.86" style="fill: rgb(228, 137, 123); transform-origin: 134.495px 331.195px;" id="elm137b4sn8r" class="animable"></polygon><polygon points="213.98 368.65 210.04 377.67 202.37 377.67 206.62 367.93 213.98 368.65" style="fill: rgb(206, 111, 100); transform-origin: 208.175px 372.8px;" id="el54c4nztur9l" class="animable"></polygon><polygon points="140.42 324.19 144.61 330.54 136.34 334.49 132.14 328.14 140.42 324.19" style="fill: rgb(206, 111, 100); transform-origin: 138.375px 329.34px;" id="el6ezzdibv3lo" class="animable"></polygon><path d="M281.63,206.42l.24.54.31.63c.2.42.43.85.66,1.28.47.85,1,1.71,1.5,2.53a46.66,46.66,0,0,0,3.47,4.82,52.2,52.2,0,0,0,4.09,4.32c.75.66,1.48,1.34,2.26,2l1.17.92.27.22s0,0,0,0a2,2,0,0,0-.39-.08,1.71,1.71,0,0,0-.85.13.88.88,0,0,0-.42.27c-.07.1.11-.06.26-.32a11,11,0,0,0,.93-2.3,49.92,49.92,0,0,0,1.29-5.91c.34-2.06.62-4.17.84-6.28s.45-4.26.65-6.36l3.86-.06c.24,2.23.34,4.4.43,6.62s.05,4.42,0,6.67a45.64,45.64,0,0,1-.79,6.89,17.05,17.05,0,0,1-1.21,3.8,8,8,0,0,1-1.62,2.31,5.5,5.5,0,0,1-1.8,1.13,5.26,5.26,0,0,1-2.44.3,5.87,5.87,0,0,1-1.92-.6,7.59,7.59,0,0,1-.7-.4l-.38-.25-1.46-1c-1-.66-1.88-1.39-2.79-2.12a48.47,48.47,0,0,1-5.05-4.88,50.63,50.63,0,0,1-4.27-5.59c-.64-1-1.23-2-1.8-3-.28-.53-.55-1.05-.81-1.6l-.38-.85c-.13-.3-.23-.54-.39-.95Z" style="fill: rgb(228, 137, 123); transform-origin: 288.322px 216.647px;" id="elqvquq31ts7p" class="animable"></path><polygon points="285.01 211.59 278.29 220.86 281.07 223.59 288.22 214.99 285.01 211.59" style="fill: rgb(245, 245, 245); transform-origin: 283.255px 217.59px;" id="el9b8p713yz8" class="animable"></polygon><path d="M274.47,199.36c7.57,2,12.79,12.62,12.79,12.62l-8.74,12.25S268,211,268.27,206.82C268.53,202.44,269.91,198.13,274.47,199.36Z" style="fill: rgb(142, 81, 255); transform-origin: 277.762px 211.689px;" id="el4m86coel5ps" class="animable"></path><g id="elz55r1h75vso"><path d="M274.47,199.36c7.57,2,12.79,12.62,12.79,12.62l-8.74,12.25S268,211,268.27,206.82C268.53,202.44,269.91,198.13,274.47,199.36Z" style="fill: rgb(255, 255, 255); opacity: 0.7; transform-origin: 277.762px 211.689px;" class="animable"></path></g><path d="M281,203.27s2.49,2.94-26.33,37.82L228,225.47c6.8-10.59,10.73-17.28,18.58-42.6A90.92,90.92,0,0,1,258.8,188a112.16,112.16,0,0,1,12.12,7.09C275.84,198.61,281,203.27,281,203.27Z" style="fill: rgb(142, 81, 255); transform-origin: 254.527px 211.98px;" id="el4i1sv8s5q9b" class="animable"></path><g id="elcuy001dwc0b"><path d="M281,203.27s2.49,2.94-26.33,37.82L228,225.47c6.8-10.59,10.73-17.28,18.58-42.6A90.92,90.92,0,0,1,258.8,188a112.16,112.16,0,0,1,12.12,7.09C275.84,198.61,281,203.27,281,203.27Z" style="fill: rgb(255, 255, 255); opacity: 0.7; transform-origin: 254.527px 211.98px;" class="animable"></path></g><path d="M277.54,200.26c-1.88-1.56-4.29-3.49-6.62-5.17A99,99,0,0,0,258.8,188c-2.36-1.23-4.78-2.31-6.84-3.13-.33.55-.06,2.23.95,4.69,3.84,4.95,12.76,12.24,20.2,13.69C276.57,202.75,277.65,201.65,277.54,200.26Z" style="fill: rgb(245, 245, 245); transform-origin: 264.687px 194.06px;" id="eljwzzg93oxe" class="animable"></path><path d="M252.91,189.56a54.24,54.24,0,0,0,8.85,13.72,57.13,57.13,0,0,0,11.35,0C265.67,201.8,256.75,194.51,252.91,189.56Z" style="fill: rgb(245, 245, 245); transform-origin: 263.01px 196.561px;" id="el2vatcknv752" class="animable"></path><path d="M254.7,241.09s.43,68.52-11.72,88.3c-12.64,20.57-29.12,45.66-29.12,45.66l-14.27-.69s16.64-37.12,22.92-54.35c8.65-23.75,12.65-90.36,12.65-90.36Z" style="fill: rgb(142, 81, 255); transform-origin: 227.146px 302.35px;" id="elq40ko8mqqa" class="animable"></path><g id="elkzd9sdozrme"><path d="M254.7,241.09s.43,68.52-11.72,88.3c-12.64,20.57-29.12,45.66-29.12,45.66l-14.27-.69s16.64-37.12,22.92-54.35c8.65-23.75,12.65-90.36,12.65-90.36Z" style="opacity: 0.4; transform-origin: 227.146px 302.35px;" class="animable"></path></g><g id="elfibtdjucbu"><path d="M239.52,243a28.87,28.87,0,0,0-5.89,6.85c-.45,5.1-1,10.83-1.63,16.83C236.35,260.77,239.79,250.4,239.52,243Z" style="opacity: 0.2; transform-origin: 235.767px 254.84px;" class="animable"></path></g><path d="M247.65,237s-30.19,42.86-49,66c-15.2,18.65-59.2,32-59.2,32l-5.37-9s35-19.54,45.44-32.16c33.42-40.4,33-61.35,48.52-68.26Z" style="fill: rgb(142, 81, 255); transform-origin: 190.865px 280.29px;" id="elgl5o6yskwv" class="animable"></path><g id="el2he2h0xii2"><path d="M247.65,237s-30.19,42.86-49,66c-15.2,18.65-59.2,32-59.2,32l-5.37-9s35-19.54,45.44-32.16c33.42-40.4,33-61.35,48.52-68.26Z" style="opacity: 0.4; transform-origin: 190.865px 280.29px;" class="animable"></path></g><path d="M298,203.77l-2-8,7.63,2.22s-.21,5.38-2.85,7.13Z" style="fill: rgb(228, 137, 123); transform-origin: 299.815px 200.445px;" id="eleq2sn0zca45" class="animable"></path><polygon points="298.43 189.35 303.79 192.06 303.66 198.03 296.03 195.81 298.43 189.35" style="fill: rgb(228, 137, 123); transform-origin: 299.91px 193.69px;" id="el47si5nq7hy6" class="animable"></polygon><path d="M202.58,192.29l-7-4.3,7-3.74s3.59,4,2.93,7.1Z" style="fill: rgb(228, 137, 123); transform-origin: 200.586px 188.27px;" id="elabb273p4am8" class="animable"></path><polygon points="192.81 181.68 198.54 179.88 202.62 184.25 195.59 187.99 192.81 181.68" style="fill: rgb(228, 137, 123); transform-origin: 197.715px 183.935px;" id="elxcuuve3phj" class="animable"></polygon><path d="M130.32,337.54l-2.49-8.18a.61.61,0,0,0-.68-.42l-6.75,1a1.22,1.22,0,0,0-.94,1.56c.92,2.83,1.5,4.16,2.6,7.75.67,2.22,1.84,7.21,2.77,10.27s4,2.3,3.89.94c-.51-6.08.49-9.19,1.52-11.6A2,2,0,0,0,130.32,337.54Z" style="fill: rgb(38, 50, 56); transform-origin: 124.901px 340.29px;" id="el3687ws5zmrt" class="animable"></path><path d="M207.31,383.87h-9a.74.74,0,0,0-.71.55l-2,7.15a1.11,1.11,0,0,0,1.1,1.42c3.16-.05,4.7-.23,8.67-.23,2.44,0,8.76.25,12.13.25s4-3.34,2.63-3.64c-6.13-1.35-9.65-3.22-11.54-5A1.87,1.87,0,0,0,207.31,383.87Z" style="fill: rgb(38, 50, 56); transform-origin: 208.181px 388.44px;" id="el1l1fq7xj0el" class="animable"></path><path d="M228.53,223.67l-2.6,1.69c-.2.13-.09.45.22.63l28,16.37c.24.14.51.14.61,0l1.64-2.25c.11-.16,0-.42-.28-.57l-27-15.81A.56.56,0,0,0,228.53,223.67Z" style="fill: rgb(38, 50, 56); transform-origin: 241.136px 233.039px;" id="elfdr8xopgwwm" class="animable"></path><path d="M244.39,194.34c-1.89,1.51-3.69,2.73-5.6,4s-3.85,2.36-5.85,3.44a68,68,0,0,1-12.61,5.33c-.54.19-1.12.32-1.67.47s-1.08.3-1.74.44a12.9,12.9,0,0,1-4.37.22,10.72,10.72,0,0,1-4.36-1.52,12.06,12.06,0,0,1-3.19-2.94,19.37,19.37,0,0,1-3.12-6.87,24.59,24.59,0,0,1-.64-3.47,25.18,25.18,0,0,1-.23-3.52l3.84-.33a36,36,0,0,0,1.87,5.71,14.82,14.82,0,0,0,2.91,4.58,4.94,4.94,0,0,0,3.54,1.66,7.06,7.06,0,0,0,2.08-.33c.87-.28,1.89-.6,2.82-.94A74.64,74.64,0,0,0,229.2,195c1.82-1,3.56-2.15,5.32-3.26s3.49-2.36,5-3.5Z" style="fill: rgb(228, 137, 123); transform-origin: 222.7px 198.286px;" id="elwtjlt4r11hb" class="animable"></path><polygon points="232.02 191.72 235.48 202.18 238.73 200.23 235.69 189.86 232.02 191.72" style="fill: rgb(245, 245, 245); transform-origin: 235.375px 196.02px;" id="elkhg8dbc6qr" class="animable"></polygon><path d="M131.09,341.83a1,1,0,0,1-.48-.13c-.83-.5-1.06-2.27-1.13-3.28a.19.19,0,0,1,.1-.17.21.21,0,0,1,.2,0c.24.2,2.34,2,2.21,2.94a.61.61,0,0,1-.38.49A1.14,1.14,0,0,1,131.09,341.83Zm-1.21-3c.13,1.35.46,2.29.91,2.56a.72.72,0,0,0,.67,0c.14-.07.17-.15.17-.22C131.7,340.66,130.7,339.57,129.88,338.83Z" style="fill: rgb(142, 81, 255); transform-origin: 130.738px 340.027px;" id="elt2vxt1swvic" class="animable"></path><path d="M132.35,339.66a5.22,5.22,0,0,1-2.81-1.12.16.16,0,0,1,0-.17.18.18,0,0,1,.12-.13c.09,0,2.19-.66,3.13-.08a.94.94,0,0,1,.45.66.63.63,0,0,1-.3.73A1.24,1.24,0,0,1,132.35,339.66Zm-2.3-1.17c.77.53,2.2,1,2.67.74.07,0,.16-.12.12-.35a.58.58,0,0,0-.29-.41A4.11,4.11,0,0,0,130.05,338.49Z" style="fill: rgb(142, 81, 255); transform-origin: 131.391px 338.792px;" id="elg33nxaerdj9" class="animable"></path><path d="M211.31,385.36a11.8,11.8,0,0,1-2.47-.31.19.19,0,0,1-.14-.16.2.2,0,0,1,.11-.18c.6-.29,3.68-1.68,4.5-1.13a.53.53,0,0,1,.22.5,1.1,1.1,0,0,1-.45.86A3,3,0,0,1,211.31,385.36Zm-1.84-.55c1,.18,2.68.38,3.39-.16a.73.73,0,0,0,.31-.6.18.18,0,0,0-.06-.17C212.66,383.58,210.81,384.22,209.47,384.81Z" style="fill: rgb(142, 81, 255); transform-origin: 211.117px 384.41px;" id="elvtqb7z4zgx9" class="animable"></path><path d="M208.88,385.05a.15.15,0,0,1-.11,0,.16.16,0,0,1-.06-.18c0-.14.78-3.41,2.58-3.18.47.05.59.29.62.47.12.86-1.94,2.5-3,2.92Zm2.25-3.05c-1.08,0-1.73,1.75-2,2.54,1-.57,2.46-1.87,2.39-2.37,0-.08-.11-.14-.3-.16Z" style="fill: rgb(142, 81, 255); transform-origin: 210.309px 383.379px;" id="eltmhpdfw9ajn" class="animable"></path><path d="M230.39,228.82l-.72-.42c-.14-.09-.21-.23-.15-.31l2.16-2.91c.06-.08.23-.08.37,0l.73.43c.14.08.21.22.15.3l-2.16,2.91C230.71,228.9,230.54,228.9,230.39,228.82Z" style="fill: rgb(142, 81, 255); transform-origin: 231.225px 227px;" id="elzdn7vr0axd" class="animable"></path><path d="M251.94,241.43l-.72-.43c-.14-.08-.21-.22-.15-.3l2.16-2.91c.06-.08.23-.08.37,0l.73.42c.14.09.21.23.14.31l-2.15,2.91C252.26,241.51,252.09,241.51,251.94,241.43Z" style="fill: rgb(142, 81, 255); transform-origin: 252.773px 239.61px;" id="elnkfdojdiiwi" class="animable"></path><path d="M241.17,235.12l-.73-.42c-.14-.08-.21-.22-.14-.31l2.15-2.9c.07-.09.23-.09.38,0l.72.42c.15.08.21.22.15.31l-2.16,2.9C241.48,235.21,241.31,235.21,241.17,235.12Z" style="fill: rgb(142, 81, 255); transform-origin: 241.998px 233.305px;" id="el8phux7qekzn" class="animable"></path><g id="elducr1vr4heb"><path d="M230.39,228.82l-.72-.42c-.14-.09-.21-.23-.15-.31l2.16-2.91c.06-.08.23-.08.37,0l.73.43c.14.08.21.22.15.3l-2.16,2.91C230.71,228.9,230.54,228.9,230.39,228.82Z" style="opacity: 0.4; transform-origin: 231.225px 227px;" class="animable"></path></g><g id="elmv82q7j56b"><path d="M251.94,241.43l-.72-.43c-.14-.08-.21-.22-.15-.3l2.16-2.91c.06-.08.23-.08.37,0l.73.42c.14.09.21.23.14.31l-2.15,2.91C252.26,241.51,252.09,241.51,251.94,241.43Z" style="opacity: 0.4; transform-origin: 252.773px 239.61px;" class="animable"></path></g><g id="elw5vcbjpkgsi"><path d="M241.17,235.12l-.73-.42c-.14-.08-.21-.22-.14-.31l2.15-2.9c.07-.09.23-.09.38,0l.72.42c.15.08.21.22.15.31l-2.16,2.9C241.48,235.21,241.31,235.21,241.17,235.12Z" style="opacity: 0.4; transform-origin: 241.998px 233.305px;" class="animable"></path></g><path d="M261.18,190c0-6-2-29.61,7.84-31.61,3.11-3.28,18.52-3.62,20.88,4.72,3.12,10.95-1.5,37.67-1.5,37.67L261.18,190" style="fill: rgb(38, 50, 56); transform-origin: 275.997px 178.506px;" id="el5l5yq4oi7xb" class="animable"></path><path d="M290.45,200.84h0a.25.25,0,0,1-.22-.28c0-.27,3.25-27-.34-37.58-1-2.9-3.78-4.93-7.9-5.73-5.36-1.05-11.16.26-12.77,2.12a.25.25,0,0,1-.35,0,.26.26,0,0,1,0-.36c1.88-2.18,8.19-3.27,13.25-2.28,4.3.83,7.24,3,8.28,6.06,3.62,10.71.39,37.53.36,37.8A.26.26,0,0,1,290.45,200.84Z" style="fill: rgb(38, 50, 56); transform-origin: 280.456px 178.603px;" id="elzofyr8ghsw" class="animable"></path><path d="M268,175.07c-1.51,4.34-4.93,11.93-9.18,12.93,0,0-1.25,4.58,6,8.82,8,4.66,6.12-1.73,6.12-1.73-3.74-3.58-1.75-6.74.78-9.32Z" style="fill: rgb(228, 137, 123); transform-origin: 265.229px 186.796px;" id="eluz2vqytae6c" class="animable"></path><path d="M269.5,179.43l2.2,6.33a15.44,15.44,0,0,0-1.63,1.93c-1.52-1.21-3.15-4.16-2.31-6A8,8,0,0,1,269.5,179.43Z" style="fill: rgb(206, 111, 100); transform-origin: 269.616px 183.56px;" id="elpkv1d6erssl" class="animable"></path><path d="M268.06,166.42c-2.07,7.27-3.1,10.3-.79,15.21,3.47,7.4,12.84,8.35,17,1.85,3.78-5.85,6.52-16.75.56-22A10.3,10.3,0,0,0,268.06,166.42Z" style="fill: rgb(228, 137, 123); transform-origin: 277.129px 173.348px;" id="elyrldm3yypm" class="animable"></path><path d="M265.93,171c5.17,1.93,17.32-4.48,20.63-8.41.44-6.06-13.77-3.67-13.77-3.67S265.21,156.59,265.93,171Z" style="fill: rgb(38, 50, 56); transform-origin: 276.226px 164.905px;" id="el2ziqmub7f07" class="animable"></path><path d="M264.7,172.45a5.51,5.51,0,0,0,.67,4.16c1,1.64,2.84,1,3.64-.62.72-1.48,1.05-4.13-.5-5.2A2.48,2.48,0,0,0,264.7,172.45Z" style="fill: rgb(228, 137, 123); transform-origin: 267.082px 173.974px;" id="elre6v62hsoq9" class="animable"></path><path d="M278.15,172.21c-.21.58-.07,1.16.31,1.29s.85-.23,1.06-.81.06-1.15-.32-1.29S278.35,171.63,278.15,172.21Z" style="fill: rgb(38, 50, 56); transform-origin: 278.834px 172.448px;" id="eljpis770fek" class="animable"></path><path d="M284.69,174.52c-.2.58-.06,1.15.32,1.29s.85-.23,1.05-.81.06-1.16-.31-1.29S284.9,173.94,284.69,174.52Z" style="fill: rgb(38, 50, 56); transform-origin: 285.375px 174.762px;" id="elco1btgr52q" class="animable"></path><path d="M285.57,173.68l1.53.09S286,174.61,285.57,173.68Z" style="fill: rgb(38, 50, 56); transform-origin: 286.335px 173.899px;" id="elfwp8gp3dg5" class="animable"></path><path d="M282.61,174.9a16.67,16.67,0,0,0,.76,4.42,2.62,2.62,0,0,1-2.2-.34Z" style="fill: rgb(222, 87, 83); transform-origin: 282.27px 177.163px;" id="eldalb9hjlqs4" class="animable"></path><path d="M278.39,180.56h-.06a5.18,5.18,0,0,1-3.34-3.37.19.19,0,0,1,.14-.22.17.17,0,0,1,.21.14,4.93,4.93,0,0,0,3.11,3.11.18.18,0,0,1-.06.35Z" style="fill: rgb(38, 50, 56); transform-origin: 276.779px 178.767px;" id="elydw3fkfxjro" class="animable"></path><path d="M277.86,169.92a.36.36,0,0,1-.17-.68,3.59,3.59,0,0,1,3.28-.13.36.36,0,1,1-.34.63,2.87,2.87,0,0,0-2.6.14A.35.35,0,0,1,277.86,169.92Z" style="fill: rgb(38, 50, 56); transform-origin: 279.344px 169.348px;" id="eliqwld5hrm6q" class="animable"></path><path d="M288.84,172.57a.35.35,0,0,1-.34-.27,2.88,2.88,0,0,0-1.66-2,.37.37,0,0,1-.23-.46.35.35,0,0,1,.46-.22,3.56,3.56,0,0,1,2.12,2.51.36.36,0,0,1-.26.44Z" style="fill: rgb(38, 50, 56); transform-origin: 287.897px 171.083px;" id="elpgo82wdrmfd" class="animable"></path><path d="M279,171.38l1.53.09S279.46,172.3,279,171.38Z" style="fill: rgb(38, 50, 56); transform-origin: 279.765px 171.597px;" id="eler400ca491h" class="animable"></path><path d="M246.6,182.87c-3.15-.75-12.84,6.63-12.84,6.63l4.11,13.11S248,197,248.94,192.87C249.87,188.59,250.19,183.73,246.6,182.87Z" style="fill: rgb(142, 81, 255); transform-origin: 241.657px 192.713px;" id="ely66q1a71v1d" class="animable"></path><g id="elg8eptus9zyw"><path d="M246.6,182.87c-3.15-.75-12.84,6.63-12.84,6.63l4.11,13.11S248,197,248.94,192.87C249.87,188.59,250.19,183.73,246.6,182.87Z" style="fill: rgb(255, 255, 255); opacity: 0.7; transform-origin: 241.657px 192.713px;" class="animable"></path></g></g></g><g id="freepik--bubble-speech--inject-2" class="animable" style="transform-origin: 324.9px 128.84px;"><path d="M362,99.44h-74.2a12,12,0,0,0-12,12v23a12,12,0,0,0,12,12H294v11.8l11.8-11.8H362a12,12,0,0,0,12-12v-23A12,12,0,0,0,362,99.44Z" style="fill: rgb(142, 81, 255); transform-origin: 324.9px 128.84px;" id="el6op7dgxd21q" class="animable"></path><g id="el1wn3zzfjxk7"><path d="M362,99.44h-74.2a12,12,0,0,0-12,12v23a12,12,0,0,0,12,12H294v11.8l11.8-11.8H362a12,12,0,0,0,12-12v-23A12,12,0,0,0,362,99.44Z" style="opacity: 0.3; transform-origin: 324.9px 128.84px;" class="animable"></path></g><g id="elrkpnuts3dj9"><g style="opacity: 0.54; transform-origin: 324.89px 111.75px;" class="animable"><rect x="286.77" y="109" width="76.24" height="5.5" rx="2.75" style="fill: rgb(245, 245, 245); transform-origin: 324.89px 111.75px;" id="eloslq1efp2n" class="animable"></rect></g></g><g id="ellozldnm48o"><g style="opacity: 0.54; transform-origin: 337.575px 122.675px;" class="animable"><path d="M360.25,125.43H314.91a2.77,2.77,0,0,1-2.76-2.76h0a2.76,2.76,0,0,1,2.76-2.75h45.34a2.75,2.75,0,0,1,2.75,2.75h0A2.76,2.76,0,0,1,360.25,125.43Z" style="fill: rgb(245, 245, 245); transform-origin: 337.575px 122.675px;" id="elt7y5fxuty4c" class="animable"></path></g></g><g id="elihcoby7hqy"><g style="opacity: 0.54; transform-origin: 295.485px 122.675px;" class="animable"><path d="M301.45,125.43H289.52a2.76,2.76,0,0,1-2.75-2.76h0a2.75,2.75,0,0,1,2.75-2.75h11.93a2.75,2.75,0,0,1,2.75,2.75h0A2.76,2.76,0,0,1,301.45,125.43Z" style="fill: rgb(245, 245, 245); transform-origin: 295.485px 122.675px;" id="ely9q5blfgred" class="animable"></path></g></g><g id="el20gb06zlgku"><g style="opacity: 0.54; transform-origin: 316.055px 133.595px;" class="animable"><path d="M342.59,136.35H289.52a2.75,2.75,0,0,1-2.75-2.75h0a2.76,2.76,0,0,1,2.75-2.76h53.07a2.76,2.76,0,0,1,2.75,2.76h0A2.75,2.75,0,0,1,342.59,136.35Z" style="fill: rgb(245, 245, 245); transform-origin: 316.055px 133.595px;" id="elmnpu132mv3m" class="animable"></path></g></g></g><defs>     <filter id="active" height="200%">         <feMorphology in="SourceAlpha" result="DILATED" operator="dilate" radius="2"></feMorphology>                <feFlood flood-color="#32DFEC" flood-opacity="1" result="PINK"></feFlood>        <feComposite in="PINK" in2="DILATED" operator="in" result="OUTLINE"></feComposite>        <feMerge>            <feMergeNode in="OUTLINE"></feMergeNode>            <feMergeNode in="SourceGraphic"></feMergeNode>        </feMerge>    </filter>    <filter id="hover" height="200%">        <feMorphology in="SourceAlpha" result="DILATED" operator="dilate" radius="2"></feMorphology>                <feFlood flood-color="#ff0000" flood-opacity="0.5" result="PINK"></feFlood>        <feComposite in="PINK" in2="DILATED" operator="in" result="OUTLINE"></feComposite>        <feMerge>            <feMergeNode in="OUTLINE"></feMergeNode>            <feMergeNode in="SourceGraphic"></feMergeNode>        </feMerge>            <feColorMatrix type="matrix" values="0   0   0   0   0                0   1   0   0   0                0   0   0   0   0                0   0   0   1   0 "></feColorMatrix>    </filter></defs><defs><clipPath id="freepik--clip-path--inject-2"><rect x="177.23" y="129.81" width="144.32" height="261.93" style="fill:none"></rect></clipPath></defs></svg>